<mxfile host="65bd71144e">
    <diagram id="xR6Hb9dv8PN4i5ZWUmFh" name="Page-1">
        <mxGraphModel dx="1412" dy="1956" grid="1" gridSize="10" guides="1" tooltips="1" connect="1" arrows="1" fold="1" page="1" pageScale="1" pageWidth="3300" pageHeight="4681" math="0" shadow="0">
            <root>
                <mxCell id="0"/>
                <mxCell id="1" parent="0"/>
                <mxCell id="5" value="" style="edgeStyle=none;sketch=1;hachureGap=4;jiggle=2;curveFitting=1;html=1;fontFamily=Verdana;fontSize=14;" edge="1" parent="1" source="2" target="4">
                    <mxGeometry relative="1" as="geometry"/>
                </mxCell>
                <mxCell id="2" value="START" style="ellipse;whiteSpace=wrap;html=1;aspect=fixed;sketch=1;hachureGap=4;jiggle=2;curveFitting=1;fontFamily=Verdana;fontSize=14;fillColor=#008a00;fontColor=#ffffff;strokeColor=#005700;" vertex="1" parent="1">
                    <mxGeometry x="1600" y="40" width="80" height="80" as="geometry"/>
                </mxCell>
                <mxCell id="9" value="CITY" style="edgeStyle=none;sketch=1;hachureGap=4;jiggle=2;curveFitting=1;html=1;fontFamily=Verdana;fontSize=14;" edge="1" parent="1" source="4" target="8">
                    <mxGeometry relative="1" as="geometry"/>
                </mxCell>
                <mxCell id="4" value="COLLECT CITIES" style="whiteSpace=wrap;html=1;fontSize=14;fontFamily=Verdana;sketch=1;hachureGap=4;jiggle=2;curveFitting=1;fontSource=https%3A%2F%2Ffonts.googleapis.com%2Fcss%3Ffamily%3DArchitects%2BDaughter;absoluteArcSize=0;" vertex="1" parent="1">
                    <mxGeometry x="1580" y="170" width="120" height="60" as="geometry"/>
                </mxCell>
                <mxCell id="7" value="RETURNS A LIST CONTAINING CITIES" style="shape=callout;whiteSpace=wrap;html=1;perimeter=calloutPerimeter;sketch=1;hachureGap=4;jiggle=2;curveFitting=1;fontFamily=Verdana;fontSize=14;position2=0;size=40;position=0.21;" vertex="1" parent="1">
                    <mxGeometry x="1704" y="80" width="140" height="130" as="geometry"/>
                </mxCell>
                <mxCell id="12" value="AREA" style="edgeStyle=none;sketch=1;hachureGap=4;jiggle=2;curveFitting=1;html=1;fontFamily=Verdana;fontSize=14;" edge="1" parent="1" source="8" target="11">
                    <mxGeometry relative="1" as="geometry"/>
                </mxCell>
                <mxCell id="8" value="GET AREA" style="whiteSpace=wrap;html=1;fontSize=14;fontFamily=Verdana;sketch=1;hachureGap=4;jiggle=2;curveFitting=1;fontSource=https%3A%2F%2Ffonts.googleapis.com%2Fcss%3Ffamily%3DArchitects%2BDaughter;" vertex="1" parent="1">
                    <mxGeometry x="1580" y="304" width="120" height="60" as="geometry"/>
                </mxCell>
                <mxCell id="10" value="RETURNS A&amp;nbsp; LIST CONTAINING AREA FROM CITY" style="shape=callout;whiteSpace=wrap;html=1;perimeter=calloutPerimeter;sketch=1;hachureGap=4;jiggle=2;curveFitting=1;fontFamily=Verdana;fontSize=14;position2=1;" vertex="1" parent="1">
                    <mxGeometry x="1420" y="220" width="150" height="120" as="geometry"/>
                </mxCell>
                <mxCell id="18" value="RESTAURANT" style="edgeStyle=none;sketch=1;hachureGap=4;jiggle=2;curveFitting=1;html=1;fontFamily=Verdana;fontSize=14;entryX=0.5;entryY=0;entryDx=0;entryDy=0;" edge="1" parent="1" source="11" target="55">
                    <mxGeometry relative="1" as="geometry">
                        <mxPoint x="1640" y="580" as="targetPoint"/>
                    </mxGeometry>
                </mxCell>
                <mxCell id="11" value="COLLECT RESTAURANTS" style="whiteSpace=wrap;html=1;fontSize=14;fontFamily=Verdana;sketch=1;hachureGap=4;jiggle=2;curveFitting=1;fontSource=https%3A%2F%2Ffonts.googleapis.com%2Fcss%3Ffamily%3DArchitects%2BDaughter;" vertex="1" parent="1">
                    <mxGeometry x="1580" y="444" width="120" height="60" as="geometry"/>
                </mxCell>
                <mxCell id="13" value="ex: jakarta" style="text;html=1;strokeColor=none;fillColor=none;align=center;verticalAlign=middle;whiteSpace=wrap;rounded=0;sketch=1;hachureGap=4;jiggle=2;curveFitting=1;fontFamily=Verdana;fontSize=14;" vertex="1" parent="1">
                    <mxGeometry x="1664" y="251" width="90" height="30" as="geometry"/>
                </mxCell>
                <mxCell id="15" value="ex: bekasi-restaurant" style="text;html=1;strokeColor=none;fillColor=none;align=center;verticalAlign=middle;whiteSpace=wrap;rounded=0;sketch=1;hachureGap=4;jiggle=2;curveFitting=1;fontFamily=Verdana;fontSize=14;" vertex="1" parent="1">
                    <mxGeometry x="1673" y="392" width="171" height="22" as="geometry"/>
                </mxCell>
                <mxCell id="16" value="RETURNS A&amp;nbsp; LIST CONTAINING RESTAURANTS FROM AREA" style="shape=callout;whiteSpace=wrap;html=1;perimeter=calloutPerimeter;sketch=1;hachureGap=4;jiggle=2;curveFitting=1;fontFamily=Verdana;fontSize=14;position2=1;" vertex="1" parent="1">
                    <mxGeometry x="1420" y="364" width="150" height="120" as="geometry"/>
                </mxCell>
                <mxCell id="20" value="ex: mc-donalds" style="text;html=1;strokeColor=none;fillColor=none;align=center;verticalAlign=middle;whiteSpace=wrap;rounded=0;sketch=1;hachureGap=4;jiggle=2;curveFitting=1;fontFamily=Verdana;fontSize=14;" vertex="1" parent="1">
                    <mxGeometry x="1697" y="530" width="131" height="22" as="geometry"/>
                </mxCell>
                <mxCell id="37" value="" style="edgeStyle=none;sketch=1;hachureGap=4;jiggle=2;curveFitting=1;html=1;fontFamily=Verdana;fontSize=14;" edge="1" parent="1" source="22" target="36">
                    <mxGeometry relative="1" as="geometry"/>
                </mxCell>
                <mxCell id="22" value="REQUEST TO API" style="rounded=0;whiteSpace=wrap;html=1;sketch=1;hachureGap=4;jiggle=2;curveFitting=1;fontFamily=Verdana;fontSize=14;" vertex="1" parent="1">
                    <mxGeometry x="1990" y="115" width="120" height="60" as="geometry"/>
                </mxCell>
                <mxCell id="23" value="" style="endArrow=classic;startArrow=classic;html=1;sketch=1;hachureGap=4;jiggle=2;curveFitting=1;fontFamily=Verdana;fontSize=14;entryX=0;entryY=0.5;entryDx=0;entryDy=0;exitX=1;exitY=0.25;exitDx=0;exitDy=0;" edge="1" parent="1" source="11" target="22">
                    <mxGeometry width="50" height="50" relative="1" as="geometry">
                        <mxPoint x="1720" y="450" as="sourcePoint"/>
                        <mxPoint x="1880" y="410" as="targetPoint"/>
                        <Array as="points">
                            <mxPoint x="1920" y="460"/>
                            <mxPoint x="1920" y="145"/>
                        </Array>
                    </mxGeometry>
                </mxCell>
                <mxCell id="26" value="PAYLOAD" style="swimlane;fontStyle=0;childLayout=stackLayout;horizontal=1;startSize=30;horizontalStack=0;resizeParent=1;resizeParentMax=0;resizeLast=0;collapsible=1;marginBottom=0;whiteSpace=wrap;html=1;sketch=1;hachureGap=4;jiggle=2;curveFitting=1;fontFamily=Verdana;fontSize=14;" vertex="1" parent="1">
                    <mxGeometry x="2130" y="130" width="140" height="120" as="geometry"/>
                </mxCell>
                <mxCell id="27" value="LATITUDE" style="text;strokeColor=none;fillColor=none;align=left;verticalAlign=middle;spacingLeft=4;spacingRight=4;overflow=hidden;points=[[0,0.5],[1,0.5]];portConstraint=eastwest;rotatable=0;whiteSpace=wrap;html=1;fontSize=16;sketch=1;hachureGap=4;jiggle=2;curveFitting=1;fontFamily=Verdana;" vertex="1" parent="26">
                    <mxGeometry y="30" width="140" height="30" as="geometry"/>
                </mxCell>
                <mxCell id="28" value="LONGTITUDE" style="text;strokeColor=none;fillColor=none;align=left;verticalAlign=middle;spacingLeft=4;spacingRight=4;overflow=hidden;points=[[0,0.5],[1,0.5]];portConstraint=eastwest;rotatable=0;whiteSpace=wrap;html=1;fontSize=16;sketch=1;hachureGap=4;jiggle=2;curveFitting=1;fontFamily=Verdana;" vertex="1" parent="26">
                    <mxGeometry y="60" width="140" height="30" as="geometry"/>
                </mxCell>
                <mxCell id="40" value="PAGE TOKEN" style="text;strokeColor=none;fillColor=none;align=left;verticalAlign=middle;spacingLeft=4;spacingRight=4;overflow=hidden;points=[[0,0.5],[1,0.5]];portConstraint=eastwest;rotatable=0;whiteSpace=wrap;html=1;fontSize=16;sketch=1;hachureGap=4;jiggle=2;curveFitting=1;fontFamily=Verdana;" vertex="1" parent="26">
                    <mxGeometry y="90" width="140" height="30" as="geometry"/>
                </mxCell>
                <mxCell id="42" value="" style="edgeStyle=none;sketch=1;hachureGap=4;jiggle=2;curveFitting=1;html=1;fontFamily=Verdana;fontSize=14;" edge="1" parent="1" source="36" target="41">
                    <mxGeometry relative="1" as="geometry"/>
                </mxCell>
                <mxCell id="36" value="REQUEST TO API" style="rounded=0;whiteSpace=wrap;html=1;sketch=1;hachureGap=4;jiggle=2;curveFitting=1;fontFamily=Verdana;fontSize=14;fontSource=https%3A%2F%2Ffonts.googleapis.com%2Fcss%3Ffamily%3DArchitects%2BDaughter;" vertex="1" parent="1">
                    <mxGeometry x="1990" y="255" width="120" height="60" as="geometry"/>
                </mxCell>
                <mxCell id="38" value="" style="endArrow=classic;html=1;sketch=1;hachureGap=4;jiggle=2;curveFitting=1;fontFamily=Verdana;fontSize=14;exitX=0.5;exitY=1.067;exitDx=0;exitDy=0;exitPerimeter=0;entryX=1;entryY=0.25;entryDx=0;entryDy=0;" edge="1" parent="1" source="40" target="36">
                    <mxGeometry width="50" height="50" relative="1" as="geometry">
                        <mxPoint x="2030" y="370" as="sourcePoint"/>
                        <mxPoint x="2080" y="320" as="targetPoint"/>
                        <Array as="points">
                            <mxPoint x="2200" y="270"/>
                        </Array>
                    </mxGeometry>
                </mxCell>
                <mxCell id="39" value="TO TAKE PAYLOAD FOR NEXT REQUEST" style="shape=callout;whiteSpace=wrap;html=1;perimeter=calloutPerimeter;sketch=1;hachureGap=4;jiggle=2;curveFitting=1;fontFamily=Verdana;fontSize=14;position2=0.92;" vertex="1" parent="1">
                    <mxGeometry x="1860" y="30" width="140" height="90" as="geometry"/>
                </mxCell>
                <mxCell id="44" value="!200" style="edgeStyle=none;sketch=1;hachureGap=4;jiggle=2;curveFitting=1;html=1;fontFamily=Verdana;fontSize=14;" edge="1" parent="1" source="41" target="43">
                    <mxGeometry relative="1" as="geometry"/>
                </mxCell>
                <mxCell id="46" value="200" style="edgeStyle=none;sketch=1;hachureGap=4;jiggle=2;curveFitting=1;html=1;fontFamily=Verdana;fontSize=14;" edge="1" parent="1" source="41" target="45">
                    <mxGeometry relative="1" as="geometry"/>
                </mxCell>
                <mxCell id="41" value="CHECK RESPONSE STATUS" style="rhombus;whiteSpace=wrap;html=1;fontSize=14;fontFamily=Verdana;rounded=0;sketch=1;hachureGap=4;jiggle=2;curveFitting=1;fontSource=https%3A%2F%2Ffonts.googleapis.com%2Fcss%3Ffamily%3DArchitects%2BDaughter;" vertex="1" parent="1">
                    <mxGeometry x="1975" y="364" width="150" height="80" as="geometry"/>
                </mxCell>
                <mxCell id="175" style="edgeStyle=none;sketch=1;hachureGap=4;jiggle=2;curveFitting=1;html=1;exitX=0.5;exitY=1;exitDx=0;exitDy=0;entryX=0.5;entryY=0;entryDx=0;entryDy=0;fontFamily=Verdana;fontSize=14;" edge="1" parent="1" source="43" target="172">
                    <mxGeometry relative="1" as="geometry"/>
                </mxCell>
                <mxCell id="43" value="BREAK" style="ellipse;whiteSpace=wrap;html=1;fontSize=14;fontFamily=Verdana;rounded=0;sketch=1;hachureGap=4;jiggle=2;curveFitting=1;fontSource=https%3A%2F%2Ffonts.googleapis.com%2Fcss%3Ffamily%3DArchitects%2BDaughter;fillColor=#1ba1e2;fontColor=#ffffff;strokeColor=#006EAF;" vertex="1" parent="1">
                    <mxGeometry x="2010" y="484" width="80" height="80" as="geometry"/>
                </mxCell>
                <mxCell id="48" value="" style="edgeStyle=none;sketch=1;hachureGap=4;jiggle=2;curveFitting=1;html=1;fontFamily=Verdana;fontSize=14;" edge="1" parent="1" source="45" target="47">
                    <mxGeometry relative="1" as="geometry"/>
                </mxCell>
                <mxCell id="45" value="EXTEND RESTAURANTS" style="whiteSpace=wrap;html=1;fontSize=14;fontFamily=Verdana;rounded=0;sketch=1;hachureGap=4;jiggle=2;curveFitting=1;fontSource=https%3A%2F%2Ffonts.googleapis.com%2Fcss%3Ffamily%3DArchitects%2BDaughter;" vertex="1" parent="1">
                    <mxGeometry x="2190" y="373" width="120" height="60" as="geometry"/>
                </mxCell>
                <mxCell id="50" value="FALSE" style="edgeStyle=none;sketch=1;hachureGap=4;jiggle=2;curveFitting=1;html=1;fontFamily=Verdana;fontSize=14;" edge="1" parent="1" source="47" target="49">
                    <mxGeometry relative="1" as="geometry"/>
                </mxCell>
                <mxCell id="47" value="GET NEXT &lt;br&gt;TOKEN" style="rhombus;whiteSpace=wrap;html=1;fontSize=14;fontFamily=Verdana;rounded=0;sketch=1;hachureGap=4;jiggle=2;curveFitting=1;fontSource=https%3A%2F%2Ffonts.googleapis.com%2Fcss%3Ffamily%3DArchitects%2BDaughter;" vertex="1" parent="1">
                    <mxGeometry x="2185" y="484" width="130" height="80" as="geometry"/>
                </mxCell>
                <mxCell id="174" style="edgeStyle=none;sketch=1;hachureGap=4;jiggle=2;curveFitting=1;html=1;exitX=0;exitY=0.5;exitDx=0;exitDy=0;entryX=1;entryY=0.5;entryDx=0;entryDy=0;fontFamily=Verdana;fontSize=14;" edge="1" parent="1" source="49" target="172">
                    <mxGeometry relative="1" as="geometry"/>
                </mxCell>
                <mxCell id="49" value="BREAK" style="ellipse;whiteSpace=wrap;html=1;fontSize=14;fontFamily=Verdana;rounded=0;sketch=1;hachureGap=4;jiggle=2;curveFitting=1;fontSource=https%3A%2F%2Ffonts.googleapis.com%2Fcss%3Ffamily%3DArchitects%2BDaughter;fillColor=#1ba1e2;fontColor=#ffffff;strokeColor=#006EAF;" vertex="1" parent="1">
                    <mxGeometry x="2210" y="610" width="80" height="80" as="geometry"/>
                </mxCell>
                <mxCell id="52" value="" style="endArrow=classic;html=1;sketch=1;hachureGap=4;jiggle=2;curveFitting=1;fontFamily=Verdana;fontSize=14;exitX=1;exitY=0.5;exitDx=0;exitDy=0;entryX=1;entryY=0.5;entryDx=0;entryDy=0;" edge="1" parent="1" source="47" target="40">
                    <mxGeometry width="50" height="50" relative="1" as="geometry">
                        <mxPoint x="2250" y="540" as="sourcePoint"/>
                        <mxPoint x="2300" y="490" as="targetPoint"/>
                        <Array as="points">
                            <mxPoint x="2440" y="524"/>
                            <mxPoint x="2440" y="235"/>
                        </Array>
                    </mxGeometry>
                </mxCell>
                <mxCell id="53" value="PAGE TOKEN +1" style="edgeLabel;html=1;align=center;verticalAlign=middle;resizable=0;points=[];fontSize=14;fontFamily=Verdana;" vertex="1" connectable="0" parent="52">
                    <mxGeometry x="0.7808" y="3" relative="1" as="geometry">
                        <mxPoint x="20" y="-3" as="offset"/>
                    </mxGeometry>
                </mxCell>
                <mxCell id="54" value="TRUE" style="edgeLabel;html=1;align=center;verticalAlign=middle;resizable=0;points=[];fontSize=14;fontFamily=Verdana;" vertex="1" connectable="0" parent="52">
                    <mxGeometry x="-0.8328" y="-4" relative="1" as="geometry">
                        <mxPoint x="6" y="-4" as="offset"/>
                    </mxGeometry>
                </mxCell>
                <mxCell id="57" value="EXCEPT" style="edgeStyle=none;sketch=1;hachureGap=4;jiggle=2;curveFitting=1;html=1;fontFamily=Verdana;fontSize=14;" edge="1" parent="1" source="55" target="56">
                    <mxGeometry relative="1" as="geometry"/>
                </mxCell>
                <mxCell id="59" value="" style="edgeStyle=none;sketch=1;hachureGap=4;jiggle=2;curveFitting=1;html=1;fontFamily=Verdana;fontSize=14;" edge="1" parent="1" source="55" target="58">
                    <mxGeometry relative="1" as="geometry"/>
                </mxCell>
                <mxCell id="55" value="REQUEST &lt;br&gt;TO API" style="rhombus;whiteSpace=wrap;html=1;sketch=1;hachureGap=4;jiggle=2;curveFitting=1;fontFamily=Verdana;fontSize=14;" vertex="1" parent="1">
                    <mxGeometry x="1580" y="580" width="120" height="110" as="geometry"/>
                </mxCell>
                <mxCell id="56" value="IC(ERR)" style="whiteSpace=wrap;html=1;fontSize=14;fontFamily=Verdana;sketch=1;hachureGap=4;jiggle=2;curveFitting=1;fontSource=https%3A%2F%2Ffonts.googleapis.com%2Fcss%3Ffamily%3DArchitects%2BDaughter;" vertex="1" parent="1">
                    <mxGeometry x="1360" y="605" width="120" height="60" as="geometry"/>
                </mxCell>
                <mxCell id="61" value="TRUE" style="edgeStyle=none;sketch=1;hachureGap=4;jiggle=2;curveFitting=1;html=1;fontFamily=Verdana;fontSize=14;" edge="1" parent="1" source="58" target="60">
                    <mxGeometry relative="1" as="geometry"/>
                </mxCell>
                <mxCell id="65" value="FALSE" style="edgeStyle=none;sketch=1;hachureGap=4;jiggle=2;curveFitting=1;html=1;fontFamily=Verdana;fontSize=14;" edge="1" parent="1" source="58" target="64">
                    <mxGeometry relative="1" as="geometry"/>
                </mxCell>
                <mxCell id="58" value="REDIRECT" style="rhombus;whiteSpace=wrap;html=1;sketch=1;hachureGap=4;jiggle=2;curveFitting=1;fontFamily=Verdana;fontSize=14;fontSource=https%3A%2F%2Ffonts.googleapis.com%2Fcss%3Ffamily%3DArchitects%2BDaughter;" vertex="1" parent="1">
                    <mxGeometry x="1580" y="730" width="120" height="110" as="geometry"/>
                </mxCell>
                <mxCell id="60" value="REQUEST TO REDIRECT URL" style="whiteSpace=wrap;html=1;fontSize=14;fontFamily=Verdana;sketch=1;hachureGap=4;jiggle=2;curveFitting=1;fontSource=https%3A%2F%2Ffonts.googleapis.com%2Fcss%3Ffamily%3DArchitects%2BDaughter;" vertex="1" parent="1">
                    <mxGeometry x="1790" y="755" width="120" height="60" as="geometry"/>
                </mxCell>
                <mxCell id="62" value="IF BAD REQUEST AND GET REDIRECT" style="shape=callout;whiteSpace=wrap;html=1;perimeter=calloutPerimeter;sketch=1;hachureGap=4;jiggle=2;curveFitting=1;fontFamily=Verdana;fontSize=14;" vertex="1" parent="1">
                    <mxGeometry x="1680" y="680" width="130" height="95" as="geometry"/>
                </mxCell>
                <mxCell id="68" value="" style="edgeStyle=none;sketch=1;hachureGap=4;jiggle=2;curveFitting=1;html=1;fontFamily=Verdana;fontSize=14;" edge="1" parent="1" source="64" target="67">
                    <mxGeometry relative="1" as="geometry"/>
                </mxCell>
                <mxCell id="64" value="PARSING RESPONSE" style="whiteSpace=wrap;html=1;fontSize=14;fontFamily=Verdana;sketch=1;hachureGap=4;jiggle=2;curveFitting=1;fontSource=https%3A%2F%2Ffonts.googleapis.com%2Fcss%3Ffamily%3DArchitects%2BDaughter;" vertex="1" parent="1">
                    <mxGeometry x="1580" y="910" width="120" height="60" as="geometry"/>
                </mxCell>
                <mxCell id="66" value="" style="endArrow=classic;html=1;sketch=1;hachureGap=4;jiggle=2;curveFitting=1;fontFamily=Verdana;fontSize=14;entryX=1;entryY=0.5;entryDx=0;entryDy=0;exitX=0.5;exitY=1;exitDx=0;exitDy=0;" edge="1" parent="1" source="60" target="64">
                    <mxGeometry width="50" height="50" relative="1" as="geometry">
                        <mxPoint x="1740" y="920" as="sourcePoint"/>
                        <mxPoint x="1790" y="870" as="targetPoint"/>
                        <Array as="points">
                            <mxPoint x="1850" y="940"/>
                        </Array>
                    </mxGeometry>
                </mxCell>
                <mxCell id="70" value="" style="edgeStyle=none;sketch=1;hachureGap=4;jiggle=2;curveFitting=1;html=1;fontFamily=Verdana;fontSize=14;" edge="1" parent="1" source="67" target="69">
                    <mxGeometry relative="1" as="geometry"/>
                </mxCell>
                <mxCell id="67" value="GET REVIEW" style="whiteSpace=wrap;html=1;fontSize=14;fontFamily=Verdana;sketch=1;hachureGap=4;jiggle=2;curveFitting=1;fontSource=https%3A%2F%2Ffonts.googleapis.com%2Fcss%3Ffamily%3DArchitects%2BDaughter;" vertex="1" parent="1">
                    <mxGeometry x="1580" y="1030" width="120" height="60" as="geometry"/>
                </mxCell>
                <mxCell id="153" style="edgeStyle=none;sketch=1;hachureGap=4;jiggle=2;curveFitting=1;html=1;exitX=0.5;exitY=1;exitDx=0;exitDy=0;entryX=0;entryY=0.25;entryDx=0;entryDy=0;fontFamily=Verdana;fontSize=14;" edge="1" parent="1" source="69" target="71">
                    <mxGeometry relative="1" as="geometry">
                        <Array as="points">
                            <mxPoint x="1640" y="1275"/>
                        </Array>
                    </mxGeometry>
                </mxCell>
                <mxCell id="69" value="WRITE DETAIL" style="whiteSpace=wrap;html=1;fontSize=14;fontFamily=Verdana;sketch=1;hachureGap=4;jiggle=2;curveFitting=1;fontSource=https%3A%2F%2Ffonts.googleapis.com%2Fcss%3Ffamily%3DArchitects%2BDaughter;" vertex="1" parent="1">
                    <mxGeometry x="1580" y="1150" width="120" height="60" as="geometry"/>
                </mxCell>
                <mxCell id="154" style="edgeStyle=none;sketch=1;hachureGap=4;jiggle=2;curveFitting=1;html=1;exitX=0;exitY=0.75;exitDx=0;exitDy=0;entryX=0.5;entryY=0;entryDx=0;entryDy=0;fontFamily=Verdana;fontSize=14;" edge="1" parent="1" source="71" target="96">
                    <mxGeometry relative="1" as="geometry">
                        <Array as="points">
                            <mxPoint x="1640" y="1305"/>
                        </Array>
                    </mxGeometry>
                </mxCell>
                <mxCell id="156" style="edgeStyle=none;sketch=1;hachureGap=4;jiggle=2;curveFitting=1;html=1;exitX=1;exitY=0.25;exitDx=0;exitDy=0;entryX=0;entryY=0.5;entryDx=0;entryDy=0;fontFamily=Verdana;fontSize=14;" edge="1" parent="1" source="71" target="85">
                    <mxGeometry relative="1" as="geometry">
                        <Array as="points">
                            <mxPoint x="2140" y="1275"/>
                            <mxPoint x="2140" y="1230"/>
                        </Array>
                    </mxGeometry>
                </mxCell>
                <mxCell id="158" style="edgeStyle=none;sketch=1;hachureGap=4;jiggle=2;curveFitting=1;html=1;exitX=0.75;exitY=1;exitDx=0;exitDy=0;fontFamily=Verdana;fontSize=14;entryX=1;entryY=0.75;entryDx=0;entryDy=0;" edge="1" parent="1" source="71" target="151">
                    <mxGeometry relative="1" as="geometry">
                        <mxPoint x="1760" y="1860" as="targetPoint"/>
                        <Array as="points">
                            <mxPoint x="1960" y="1815"/>
                        </Array>
                    </mxGeometry>
                </mxCell>
                <mxCell id="71" value="SEND TO S3" style="whiteSpace=wrap;html=1;fontSize=14;fontFamily=Verdana;sketch=1;hachureGap=4;jiggle=2;curveFitting=1;fontSource=https%3A%2F%2Ffonts.googleapis.com%2Fcss%3Ffamily%3DArchitects%2BDaughter;" vertex="1" parent="1">
                    <mxGeometry x="1870" y="1260" width="120" height="60" as="geometry"/>
                </mxCell>
                <mxCell id="75" value="" style="edgeStyle=none;sketch=1;hachureGap=4;jiggle=2;curveFitting=1;html=1;fontFamily=Verdana;fontSize=14;" edge="1" parent="1" source="73" target="74">
                    <mxGeometry relative="1" as="geometry"/>
                </mxCell>
                <mxCell id="73" value="UPDATE REVIEW NAME" style="rounded=0;whiteSpace=wrap;html=1;sketch=1;hachureGap=4;jiggle=2;curveFitting=1;fontFamily=Verdana;fontSize=14;" vertex="1" parent="1">
                    <mxGeometry x="1240" y="840" width="120" height="60" as="geometry"/>
                </mxCell>
                <mxCell id="77" value="" style="edgeStyle=none;sketch=1;hachureGap=4;jiggle=2;curveFitting=1;html=1;fontFamily=Verdana;fontSize=14;" edge="1" parent="1" source="74" target="76">
                    <mxGeometry relative="1" as="geometry"/>
                </mxCell>
                <mxCell id="74" value="CREATE DIR" style="whiteSpace=wrap;html=1;fontSize=14;fontFamily=Verdana;rounded=0;sketch=1;hachureGap=4;jiggle=2;curveFitting=1;fontSource=https%3A%2F%2Ffonts.googleapis.com%2Fcss%3Ffamily%3DArchitects%2BDaughter;" vertex="1" parent="1">
                    <mxGeometry x="1240" y="960" width="120" height="60" as="geometry"/>
                </mxCell>
                <mxCell id="79" value="" style="edgeStyle=none;sketch=1;hachureGap=4;jiggle=2;curveFitting=1;html=1;fontFamily=Verdana;fontSize=14;" edge="1" parent="1" source="76" target="78">
                    <mxGeometry relative="1" as="geometry"/>
                </mxCell>
                <mxCell id="76" value="UPDATE PATH" style="whiteSpace=wrap;html=1;fontSize=14;fontFamily=Verdana;rounded=0;sketch=1;hachureGap=4;jiggle=2;curveFitting=1;fontSource=https%3A%2F%2Ffonts.googleapis.com%2Fcss%3Ffamily%3DArchitects%2BDaughter;" vertex="1" parent="1">
                    <mxGeometry x="1240" y="1070" width="120" height="60" as="geometry"/>
                </mxCell>
                <mxCell id="83" value="" style="edgeStyle=none;sketch=1;hachureGap=4;jiggle=2;curveFitting=1;html=1;fontFamily=Verdana;fontSize=14;" edge="1" parent="1" source="78" target="82">
                    <mxGeometry relative="1" as="geometry"/>
                </mxCell>
                <mxCell id="78" value="WRITE TO LOKAL" style="whiteSpace=wrap;html=1;fontSize=14;fontFamily=Verdana;rounded=0;sketch=1;hachureGap=4;jiggle=2;curveFitting=1;fontSource=https%3A%2F%2Ffonts.googleapis.com%2Fcss%3Ffamily%3DArchitects%2BDaughter;" vertex="1" parent="1">
                    <mxGeometry x="1240" y="1180" width="120" height="60" as="geometry"/>
                </mxCell>
                <mxCell id="80" value="" style="endArrow=classic;html=1;sketch=1;hachureGap=4;jiggle=2;curveFitting=1;fontFamily=Verdana;fontSize=14;entryX=1;entryY=0.5;entryDx=0;entryDy=0;exitX=0;exitY=0.25;exitDx=0;exitDy=0;" edge="1" parent="1" source="69" target="73">
                    <mxGeometry width="50" height="50" relative="1" as="geometry">
                        <mxPoint x="1570" y="920" as="sourcePoint"/>
                        <mxPoint x="1620" y="870" as="targetPoint"/>
                        <Array as="points">
                            <mxPoint x="1520" y="1165"/>
                            <mxPoint x="1520" y="870"/>
                        </Array>
                    </mxGeometry>
                </mxCell>
                <mxCell id="81" value="" style="endArrow=classic;html=1;sketch=1;hachureGap=4;jiggle=2;curveFitting=1;fontFamily=Verdana;fontSize=14;exitX=1;exitY=0.5;exitDx=0;exitDy=0;entryX=0;entryY=0.75;entryDx=0;entryDy=0;" edge="1" parent="1" source="82" target="69">
                    <mxGeometry width="50" height="50" relative="1" as="geometry">
                        <mxPoint x="1570" y="920" as="sourcePoint"/>
                        <mxPoint x="1620" y="870" as="targetPoint"/>
                        <Array as="points">
                            <mxPoint x="1450" y="1350"/>
                            <mxPoint x="1450" y="1200"/>
                        </Array>
                    </mxGeometry>
                </mxCell>
                <mxCell id="82" value="RETURN" style="ellipse;whiteSpace=wrap;html=1;fontSize=14;fontFamily=Verdana;rounded=0;sketch=1;hachureGap=4;jiggle=2;curveFitting=1;fontSource=https%3A%2F%2Ffonts.googleapis.com%2Fcss%3Ffamily%3DArchitects%2BDaughter;fillColor=#0050ef;fontColor=#ffffff;strokeColor=#001DBC;" vertex="1" parent="1">
                    <mxGeometry x="1260" y="1310" width="80" height="80" as="geometry"/>
                </mxCell>
                <mxCell id="84" value="RETURN:&amp;nbsp;&lt;br&gt;- HEADERS&lt;br&gt;- PATH DETAIL" style="shape=callout;whiteSpace=wrap;html=1;perimeter=calloutPerimeter;sketch=1;hachureGap=4;jiggle=2;curveFitting=1;fontFamily=Verdana;fontSize=14;position2=1;" vertex="1" parent="1">
                    <mxGeometry x="1130" y="1240" width="130" height="90" as="geometry"/>
                </mxCell>
                <mxCell id="93" value="" style="edgeStyle=none;sketch=1;hachureGap=4;jiggle=2;curveFitting=1;html=1;fontFamily=Verdana;fontSize=14;" edge="1" parent="1" source="85" target="92">
                    <mxGeometry relative="1" as="geometry"/>
                </mxCell>
                <mxCell id="85" value="REQUEST TO SERVER" style="whiteSpace=wrap;html=1;fontSize=14;fontFamily=Verdana;sketch=1;hachureGap=4;jiggle=2;curveFitting=1;fontSource=https%3A%2F%2Ffonts.googleapis.com%2Fcss%3Ffamily%3DArchitects%2BDaughter;" vertex="1" parent="1">
                    <mxGeometry x="2200" y="1200" width="120" height="60" as="geometry"/>
                </mxCell>
                <mxCell id="87" value="PAYLOAD" style="swimlane;fontStyle=0;childLayout=stackLayout;horizontal=1;startSize=30;horizontalStack=0;resizeParent=1;resizeParentMax=0;resizeLast=0;collapsible=1;marginBottom=0;whiteSpace=wrap;html=1;sketch=1;hachureGap=4;jiggle=2;curveFitting=1;fontFamily=Verdana;fontSize=14;" vertex="1" parent="1">
                    <mxGeometry x="2300" y="1050" width="170" height="120" as="geometry"/>
                </mxCell>
                <mxCell id="88" value="ACCES KEY" style="text;strokeColor=none;fillColor=none;align=left;verticalAlign=middle;spacingLeft=4;spacingRight=4;overflow=hidden;points=[[0,0.5],[1,0.5]];portConstraint=eastwest;rotatable=0;whiteSpace=wrap;html=1;fontSize=16;sketch=1;hachureGap=4;jiggle=2;curveFitting=1;fontFamily=Verdana;" vertex="1" parent="87">
                    <mxGeometry y="30" width="170" height="30" as="geometry"/>
                </mxCell>
                <mxCell id="89" value="SECRET ACCESS" style="text;strokeColor=none;fillColor=none;align=left;verticalAlign=middle;spacingLeft=4;spacingRight=4;overflow=hidden;points=[[0,0.5],[1,0.5]];portConstraint=eastwest;rotatable=0;whiteSpace=wrap;html=1;fontSize=16;sketch=1;hachureGap=4;jiggle=2;curveFitting=1;fontFamily=Verdana;" vertex="1" parent="87">
                    <mxGeometry y="60" width="170" height="30" as="geometry"/>
                </mxCell>
                <mxCell id="90" value="ENDPOINT" style="text;strokeColor=none;fillColor=none;align=left;verticalAlign=middle;spacingLeft=4;spacingRight=4;overflow=hidden;points=[[0,0.5],[1,0.5]];portConstraint=eastwest;rotatable=0;whiteSpace=wrap;html=1;fontSize=16;sketch=1;hachureGap=4;jiggle=2;curveFitting=1;fontFamily=Verdana;" vertex="1" parent="87">
                    <mxGeometry y="90" width="170" height="30" as="geometry"/>
                </mxCell>
                <mxCell id="91" value="" style="endArrow=classic;html=1;sketch=1;hachureGap=4;jiggle=2;curveFitting=1;fontFamily=Verdana;fontSize=14;entryX=0.5;entryY=0;entryDx=0;entryDy=0;exitX=0;exitY=0.5;exitDx=0;exitDy=0;" edge="1" parent="1" source="89" target="85">
                    <mxGeometry width="50" height="50" relative="1" as="geometry">
                        <mxPoint x="2260" y="1120" as="sourcePoint"/>
                        <mxPoint x="2160" y="940" as="targetPoint"/>
                        <Array as="points">
                            <mxPoint x="2260" y="1125"/>
                        </Array>
                    </mxGeometry>
                </mxCell>
                <mxCell id="155" style="edgeStyle=none;sketch=1;hachureGap=4;jiggle=2;curveFitting=1;html=1;exitX=0;exitY=0.5;exitDx=0;exitDy=0;entryX=1;entryY=0.75;entryDx=0;entryDy=0;fontFamily=Verdana;fontSize=14;" edge="1" parent="1" source="92" target="71">
                    <mxGeometry relative="1" as="geometry">
                        <Array as="points">
                            <mxPoint x="2140" y="1370"/>
                            <mxPoint x="2140" y="1305"/>
                        </Array>
                    </mxGeometry>
                </mxCell>
                <mxCell id="92" value="RETURN" style="ellipse;whiteSpace=wrap;html=1;fontSize=14;fontFamily=Verdana;sketch=1;hachureGap=4;jiggle=2;curveFitting=1;fontSource=https%3A%2F%2Ffonts.googleapis.com%2Fcss%3Ffamily%3DArchitects%2BDaughter;fillColor=#0050ef;fontColor=#ffffff;strokeColor=#001DBC;" vertex="1" parent="1">
                    <mxGeometry x="2220" y="1330" width="80" height="80" as="geometry"/>
                </mxCell>
                <mxCell id="140" style="edgeStyle=none;sketch=1;hachureGap=4;jiggle=2;curveFitting=1;html=1;exitX=0.5;exitY=1;exitDx=0;exitDy=0;entryX=0.5;entryY=0;entryDx=0;entryDy=0;fontFamily=Verdana;fontSize=14;" edge="1" parent="1" source="96" target="139">
                    <mxGeometry relative="1" as="geometry"/>
                </mxCell>
                <mxCell id="96" value="COLLECT REVIEWS" style="whiteSpace=wrap;html=1;fontSize=14;fontFamily=Verdana;sketch=1;hachureGap=4;jiggle=2;curveFitting=1;fontSource=https%3A%2F%2Ffonts.googleapis.com%2Fcss%3Ffamily%3DArchitects%2BDaughter;" vertex="1" parent="1">
                    <mxGeometry x="1580" y="1410" width="120" height="60" as="geometry"/>
                </mxCell>
                <mxCell id="105" value="" style="edgeStyle=none;sketch=1;hachureGap=4;jiggle=2;curveFitting=1;html=1;fontFamily=Verdana;fontSize=14;entryX=0.5;entryY=0;entryDx=0;entryDy=0;" edge="1" parent="1" source="98" target="106">
                    <mxGeometry relative="1" as="geometry">
                        <mxPoint x="870" y="470" as="targetPoint"/>
                    </mxGeometry>
                </mxCell>
                <mxCell id="98" value="REQUEST TO API REVIEW" style="rounded=0;whiteSpace=wrap;html=1;sketch=1;hachureGap=4;jiggle=2;curveFitting=1;fontFamily=Verdana;fontSize=14;" vertex="1" parent="1">
                    <mxGeometry x="810" y="340" width="120" height="60" as="geometry"/>
                </mxCell>
                <mxCell id="99" value="PARAM" style="swimlane;fontStyle=0;childLayout=stackLayout;horizontal=1;startSize=30;horizontalStack=0;resizeParent=1;resizeParentMax=0;resizeLast=0;collapsible=1;marginBottom=0;whiteSpace=wrap;html=1;sketch=1;hachureGap=4;jiggle=2;curveFitting=1;fontFamily=Verdana;fontSize=14;" vertex="1" parent="1">
                    <mxGeometry x="680" y="251" width="140" height="60" as="geometry"/>
                </mxCell>
                <mxCell id="100" value="PAGE" style="text;strokeColor=none;fillColor=none;align=left;verticalAlign=middle;spacingLeft=4;spacingRight=4;overflow=hidden;points=[[0,0.5],[1,0.5]];portConstraint=eastwest;rotatable=0;whiteSpace=wrap;html=1;fontSize=16;sketch=1;hachureGap=4;jiggle=2;curveFitting=1;fontFamily=Verdana;" vertex="1" parent="99">
                    <mxGeometry y="30" width="140" height="30" as="geometry"/>
                </mxCell>
                <mxCell id="103" value="" style="endArrow=classic;html=1;sketch=1;hachureGap=4;jiggle=2;curveFitting=1;fontFamily=Verdana;fontSize=14;exitX=1;exitY=0.5;exitDx=0;exitDy=0;entryX=0.5;entryY=0;entryDx=0;entryDy=0;" edge="1" parent="1" source="100" target="98">
                    <mxGeometry width="50" height="50" relative="1" as="geometry">
                        <mxPoint x="1120" y="780" as="sourcePoint"/>
                        <mxPoint x="1170" y="730" as="targetPoint"/>
                        <Array as="points">
                            <mxPoint x="870" y="296"/>
                        </Array>
                    </mxGeometry>
                </mxCell>
                <mxCell id="108" value="!200" style="edgeStyle=none;sketch=1;hachureGap=4;jiggle=2;curveFitting=1;html=1;fontFamily=Verdana;fontSize=14;" edge="1" parent="1" source="106" target="107">
                    <mxGeometry relative="1" as="geometry"/>
                </mxCell>
                <mxCell id="118" value="200" style="edgeStyle=none;sketch=1;hachureGap=4;jiggle=2;curveFitting=1;html=1;fontFamily=Verdana;fontSize=14;" edge="1" parent="1" source="106" target="117">
                    <mxGeometry relative="1" as="geometry"/>
                </mxCell>
                <mxCell id="106" value="CHECK RESPONSE STATUS" style="rhombus;whiteSpace=wrap;html=1;fontSize=14;fontFamily=Verdana;rounded=0;sketch=1;hachureGap=4;jiggle=2;curveFitting=1;fontSource=https%3A%2F%2Ffonts.googleapis.com%2Fcss%3Ffamily%3DArchitects%2BDaughter;" vertex="1" parent="1">
                    <mxGeometry x="795" y="460" width="150" height="80" as="geometry"/>
                </mxCell>
                <mxCell id="115" value="" style="edgeStyle=none;sketch=1;hachureGap=4;jiggle=2;curveFitting=1;html=1;fontFamily=Verdana;fontSize=14;startArrow=none;" edge="1" parent="1" source="135" target="114">
                    <mxGeometry relative="1" as="geometry"/>
                </mxCell>
                <mxCell id="107" value="APPEND TO ERROR" style="whiteSpace=wrap;html=1;fontSize=14;fontFamily=Verdana;rounded=0;sketch=1;hachureGap=4;jiggle=2;curveFitting=1;fontSource=https%3A%2F%2Ffonts.googleapis.com%2Fcss%3Ffamily%3DArchitects%2BDaughter;" vertex="1" parent="1">
                    <mxGeometry x="520" y="470" width="120" height="60" as="geometry"/>
                </mxCell>
                <mxCell id="113" value="ERROR:&lt;br&gt;1. MESSAGE&lt;br&gt;2. TYPE&amp;nbsp; &amp;nbsp; &amp;nbsp; &amp;nbsp;&lt;br&gt;3. ID&amp;nbsp; &amp;nbsp; &amp;nbsp; &amp;nbsp; &amp;nbsp; &amp;nbsp;" style="shape=callout;whiteSpace=wrap;html=1;perimeter=calloutPerimeter;sketch=1;hachureGap=4;jiggle=2;curveFitting=1;fontFamily=Verdana;fontSize=14;position2=0.88;" vertex="1" parent="1">
                    <mxGeometry x="370" y="357" width="170" height="113" as="geometry"/>
                </mxCell>
                <mxCell id="114" value="RETURN" style="ellipse;whiteSpace=wrap;html=1;fontSize=14;fontFamily=Verdana;rounded=0;sketch=1;hachureGap=4;jiggle=2;curveFitting=1;fontSource=https%3A%2F%2Ffonts.googleapis.com%2Fcss%3Ffamily%3DArchitects%2BDaughter;fillColor=#0050ef;fontColor=#ffffff;strokeColor=#001DBC;" vertex="1" parent="1">
                    <mxGeometry x="540" y="840" width="80" height="80" as="geometry"/>
                </mxCell>
                <mxCell id="116" value="RETURN:&lt;br&gt;1. ALL REVIEWS&lt;br&gt;2. ERROR&amp;nbsp; &amp;nbsp; &amp;nbsp; &amp;nbsp; &amp;nbsp;&amp;nbsp;" style="shape=callout;whiteSpace=wrap;html=1;perimeter=calloutPerimeter;sketch=1;hachureGap=4;jiggle=2;curveFitting=1;fontFamily=Verdana;fontSize=14;position2=1;base=29;size=33;position=0.71;" vertex="1" parent="1">
                    <mxGeometry x="370" y="740" width="170" height="110" as="geometry"/>
                </mxCell>
                <mxCell id="121" value="" style="edgeStyle=none;sketch=1;hachureGap=4;jiggle=2;curveFitting=1;html=1;fontFamily=Verdana;fontSize=14;entryX=0.5;entryY=0;entryDx=0;entryDy=0;" edge="1" parent="1" source="117" target="122">
                    <mxGeometry relative="1" as="geometry">
                        <mxPoint x="870" y="735" as="targetPoint"/>
                    </mxGeometry>
                </mxCell>
                <mxCell id="117" value="APPEND REVIEWS TO ALL REVIEWS" style="whiteSpace=wrap;html=1;fontSize=14;fontFamily=Verdana;rounded=0;sketch=1;hachureGap=4;jiggle=2;curveFitting=1;fontSource=https%3A%2F%2Ffonts.googleapis.com%2Fcss%3Ffamily%3DArchitects%2BDaughter;" vertex="1" parent="1">
                    <mxGeometry x="810" y="605" width="120" height="60" as="geometry"/>
                </mxCell>
                <mxCell id="128" value="" style="edgeStyle=none;sketch=1;hachureGap=4;jiggle=2;curveFitting=1;html=1;fontFamily=Verdana;fontSize=14;" edge="1" parent="1" source="122" target="127">
                    <mxGeometry relative="1" as="geometry"/>
                </mxCell>
                <mxCell id="122" value="GET NEXT &lt;br&gt;PAGE" style="rhombus;whiteSpace=wrap;html=1;fontSize=14;fontFamily=Verdana;rounded=0;sketch=1;hachureGap=4;jiggle=2;curveFitting=1;fontSource=https%3A%2F%2Ffonts.googleapis.com%2Fcss%3Ffamily%3DArchitects%2BDaughter;" vertex="1" parent="1">
                    <mxGeometry x="805" y="710" width="130" height="80" as="geometry"/>
                </mxCell>
                <mxCell id="125" value="NONE" style="endArrow=classic;html=1;sketch=1;hachureGap=4;jiggle=2;curveFitting=1;fontFamily=Verdana;fontSize=14;exitX=0;exitY=0.5;exitDx=0;exitDy=0;entryX=1;entryY=0.5;entryDx=0;entryDy=0;" edge="1" parent="1" source="122" target="135">
                    <mxGeometry x="-0.6471" width="50" height="50" relative="1" as="geometry">
                        <mxPoint x="810" y="830" as="sourcePoint"/>
                        <mxPoint x="720" y="840" as="targetPoint"/>
                        <Array as="points">
                            <mxPoint x="720" y="750"/>
                            <mxPoint x="720" y="680"/>
                        </Array>
                        <mxPoint as="offset"/>
                    </mxGeometry>
                </mxCell>
                <mxCell id="131" value="" style="edgeStyle=none;sketch=1;hachureGap=4;jiggle=2;curveFitting=1;html=1;fontFamily=Verdana;fontSize=14;entryX=0.5;entryY=0;entryDx=0;entryDy=0;" edge="1" parent="1" source="127" target="132">
                    <mxGeometry relative="1" as="geometry">
                        <mxPoint x="870" y="970" as="targetPoint"/>
                    </mxGeometry>
                </mxCell>
                <mxCell id="127" value="REQUEST TO NEXT PAGE" style="whiteSpace=wrap;html=1;fontSize=14;fontFamily=Verdana;rounded=0;sketch=1;hachureGap=4;jiggle=2;curveFitting=1;fontSource=https%3A%2F%2Ffonts.googleapis.com%2Fcss%3Ffamily%3DArchitects%2BDaughter;" vertex="1" parent="1">
                    <mxGeometry x="810" y="840" width="120" height="60" as="geometry"/>
                </mxCell>
                <mxCell id="132" value="CHECK RESPONSE STATUS" style="rhombus;whiteSpace=wrap;html=1;fontSize=14;fontFamily=Verdana;rounded=0;sketch=1;hachureGap=4;jiggle=2;curveFitting=1;fontSource=https%3A%2F%2Ffonts.googleapis.com%2Fcss%3Ffamily%3DArchitects%2BDaughter;" vertex="1" parent="1">
                    <mxGeometry x="795" y="970" width="150" height="80" as="geometry"/>
                </mxCell>
                <mxCell id="133" value="200" style="endArrow=classic;html=1;sketch=1;hachureGap=4;jiggle=2;curveFitting=1;fontFamily=Verdana;fontSize=14;exitX=1;exitY=0.5;exitDx=0;exitDy=0;entryX=1;entryY=0.5;entryDx=0;entryDy=0;" edge="1" parent="1" source="132" target="117">
                    <mxGeometry width="50" height="50" relative="1" as="geometry">
                        <mxPoint x="810" y="830" as="sourcePoint"/>
                        <mxPoint x="860" y="780" as="targetPoint"/>
                        <Array as="points">
                            <mxPoint x="1040" y="1010"/>
                            <mxPoint x="1040" y="635"/>
                        </Array>
                    </mxGeometry>
                </mxCell>
                <mxCell id="134" value="!200" style="endArrow=classic;html=1;sketch=1;hachureGap=4;jiggle=2;curveFitting=1;fontFamily=Verdana;fontSize=14;entryX=0;entryY=0.5;entryDx=0;entryDy=0;exitX=0;exitY=0.5;exitDx=0;exitDy=0;" edge="1" parent="1">
                    <mxGeometry x="-0.7095" width="50" height="50" relative="1" as="geometry">
                        <mxPoint x="795" y="1008" as="sourcePoint"/>
                        <mxPoint x="520" y="498" as="targetPoint"/>
                        <Array as="points">
                            <mxPoint x="720" y="1008"/>
                            <mxPoint x="310" y="1008"/>
                            <mxPoint x="310" y="498"/>
                        </Array>
                        <mxPoint as="offset"/>
                    </mxGeometry>
                </mxCell>
                <mxCell id="136" value="" style="edgeStyle=none;sketch=1;hachureGap=4;jiggle=2;curveFitting=1;html=1;fontFamily=Verdana;fontSize=14;endArrow=none;" edge="1" parent="1" source="107" target="135">
                    <mxGeometry relative="1" as="geometry">
                        <mxPoint x="580" y="530" as="sourcePoint"/>
                        <mxPoint x="580" y="840" as="targetPoint"/>
                    </mxGeometry>
                </mxCell>
                <mxCell id="135" value="BREAK" style="ellipse;whiteSpace=wrap;html=1;fontSize=14;fontFamily=Verdana;rounded=0;sketch=1;hachureGap=4;jiggle=2;curveFitting=1;fontSource=https%3A%2F%2Ffonts.googleapis.com%2Fcss%3Ffamily%3DArchitects%2BDaughter;fillColor=#1ba1e2;strokeColor=#006EAF;fontColor=#ffffff;" vertex="1" parent="1">
                    <mxGeometry x="540" y="640" width="80" height="80" as="geometry"/>
                </mxCell>
                <mxCell id="137" value="" style="endArrow=classic;html=1;sketch=1;hachureGap=4;jiggle=2;curveFitting=1;fontFamily=Verdana;fontSize=14;entryX=1;entryY=0.5;entryDx=0;entryDy=0;exitX=0;exitY=0.25;exitDx=0;exitDy=0;" edge="1" parent="1" source="96" target="98">
                    <mxGeometry width="50" height="50" relative="1" as="geometry">
                        <mxPoint x="1190" y="980" as="sourcePoint"/>
                        <mxPoint x="1240" y="930" as="targetPoint"/>
                        <Array as="points">
                            <mxPoint x="1080" y="1425"/>
                            <mxPoint x="1080" y="370"/>
                        </Array>
                    </mxGeometry>
                </mxCell>
                <mxCell id="138" value="" style="endArrow=classic;html=1;sketch=1;hachureGap=4;jiggle=2;curveFitting=1;fontFamily=Verdana;fontSize=14;exitX=0.5;exitY=1;exitDx=0;exitDy=0;entryX=0;entryY=0.75;entryDx=0;entryDy=0;" edge="1" parent="1" source="114" target="96">
                    <mxGeometry width="50" height="50" relative="1" as="geometry">
                        <mxPoint x="820" y="980" as="sourcePoint"/>
                        <mxPoint x="870" y="930" as="targetPoint"/>
                        <Array as="points">
                            <mxPoint x="580" y="1460"/>
                        </Array>
                    </mxGeometry>
                </mxCell>
                <mxCell id="146" value="NONE" style="edgeStyle=none;sketch=1;hachureGap=4;jiggle=2;curveFitting=1;html=1;fontFamily=Verdana;fontSize=14;" edge="1" parent="1" source="139" target="145">
                    <mxGeometry relative="1" as="geometry"/>
                </mxCell>
                <mxCell id="150" value="" style="edgeStyle=none;sketch=1;hachureGap=4;jiggle=2;curveFitting=1;html=1;fontFamily=Verdana;fontSize=14;" edge="1" parent="1" source="139" target="149">
                    <mxGeometry relative="1" as="geometry"/>
                </mxCell>
                <mxCell id="139" value="CHECK REVIEW" style="rhombus;whiteSpace=wrap;html=1;fontSize=14;fontFamily=Verdana;rounded=0;sketch=1;hachureGap=4;jiggle=2;curveFitting=1;fontSource=https%3A%2F%2Ffonts.googleapis.com%2Fcss%3Ffamily%3DArchitects%2BDaughter;" vertex="1" parent="1">
                    <mxGeometry x="1562.5" y="1530" width="155" height="80" as="geometry"/>
                </mxCell>
                <mxCell id="148" value="" style="edgeStyle=none;sketch=1;hachureGap=4;jiggle=2;curveFitting=1;html=1;fontFamily=Verdana;fontSize=14;" edge="1" parent="1" source="145" target="147">
                    <mxGeometry relative="1" as="geometry"/>
                </mxCell>
                <mxCell id="145" value="LOG ZERO" style="whiteSpace=wrap;html=1;fontSize=14;fontFamily=Verdana;rounded=0;sketch=1;hachureGap=4;jiggle=2;curveFitting=1;fontSource=https%3A%2F%2Ffonts.googleapis.com%2Fcss%3Ffamily%3DArchitects%2BDaughter;" vertex="1" parent="1">
                    <mxGeometry x="1345" y="1540" width="120" height="60" as="geometry"/>
                </mxCell>
                <mxCell id="147" value="END" style="ellipse;whiteSpace=wrap;html=1;fontSize=14;fontFamily=Verdana;rounded=0;sketch=1;hachureGap=4;jiggle=2;curveFitting=1;fontSource=https%3A%2F%2Ffonts.googleapis.com%2Fcss%3Ffamily%3DArchitects%2BDaughter;fillColor=#a20025;fontColor=#ffffff;strokeColor=#6F0000;" vertex="1" parent="1">
                    <mxGeometry x="1365" y="1670" width="80" height="80" as="geometry"/>
                </mxCell>
                <mxCell id="152" value="" style="edgeStyle=none;sketch=1;hachureGap=4;jiggle=2;curveFitting=1;html=1;fontFamily=Verdana;fontSize=14;" edge="1" parent="1" source="149" target="151">
                    <mxGeometry relative="1" as="geometry"/>
                </mxCell>
                <mxCell id="149" value="PARSING REVIEW" style="whiteSpace=wrap;html=1;fontSize=14;fontFamily=Verdana;rounded=0;sketch=1;hachureGap=4;jiggle=2;curveFitting=1;fontSource=https%3A%2F%2Ffonts.googleapis.com%2Fcss%3Ffamily%3DArchitects%2BDaughter;" vertex="1" parent="1">
                    <mxGeometry x="1577" y="1660" width="120" height="60" as="geometry"/>
                </mxCell>
                <mxCell id="157" style="edgeStyle=none;sketch=1;hachureGap=4;jiggle=2;curveFitting=1;html=1;exitX=1;exitY=0.25;exitDx=0;exitDy=0;entryX=0.25;entryY=1;entryDx=0;entryDy=0;fontFamily=Verdana;fontSize=14;" edge="1" parent="1" source="151" target="71">
                    <mxGeometry relative="1" as="geometry">
                        <Array as="points">
                            <mxPoint x="1900" y="1785"/>
                        </Array>
                    </mxGeometry>
                </mxCell>
                <mxCell id="165" value="" style="edgeStyle=none;sketch=1;hachureGap=4;jiggle=2;curveFitting=1;html=1;fontFamily=Verdana;fontSize=14;" edge="1" parent="1" source="151" target="164">
                    <mxGeometry relative="1" as="geometry"/>
                </mxCell>
                <mxCell id="151" value="UPDATE HEADER" style="whiteSpace=wrap;html=1;fontSize=14;fontFamily=Verdana;rounded=0;sketch=1;hachureGap=4;jiggle=2;curveFitting=1;fontSource=https%3A%2F%2Ffonts.googleapis.com%2Fcss%3Ffamily%3DArchitects%2BDaughter;" vertex="1" parent="1">
                    <mxGeometry x="1577" y="1770" width="120" height="60" as="geometry"/>
                </mxCell>
                <mxCell id="166" style="edgeStyle=none;sketch=1;hachureGap=4;jiggle=2;curveFitting=1;html=1;exitX=0;exitY=0.5;exitDx=0;exitDy=0;entryX=1;entryY=0.5;entryDx=0;entryDy=0;fontFamily=Verdana;fontSize=14;" edge="1" parent="1" source="164" target="147">
                    <mxGeometry relative="1" as="geometry">
                        <Array as="points">
                            <mxPoint x="1520" y="1910"/>
                            <mxPoint x="1520" y="1710"/>
                        </Array>
                    </mxGeometry>
                </mxCell>
                <mxCell id="211" style="edgeStyle=none;sketch=1;hachureGap=4;jiggle=2;curveFitting=1;html=1;exitX=1;exitY=0.25;exitDx=0;exitDy=0;entryX=0;entryY=0.5;entryDx=0;entryDy=0;fontFamily=Verdana;fontSize=14;" edge="1" parent="1" source="164" target="177">
                    <mxGeometry relative="1" as="geometry">
                        <Array as="points">
                            <mxPoint x="2380" y="1895"/>
                            <mxPoint x="2380" y="1590"/>
                        </Array>
                    </mxGeometry>
                </mxCell>
                <mxCell id="214" value="" style="edgeStyle=none;sketch=1;hachureGap=4;jiggle=2;curveFitting=1;html=1;fontFamily=Verdana;fontSize=14;" edge="1" parent="1" source="164" target="213">
                    <mxGeometry relative="1" as="geometry"/>
                </mxCell>
                <mxCell id="164" value="LOG S3" style="whiteSpace=wrap;html=1;fontSize=14;fontFamily=Verdana;rounded=0;sketch=1;hachureGap=4;jiggle=2;curveFitting=1;fontSource=https%3A%2F%2Ffonts.googleapis.com%2Fcss%3Ffamily%3DArchitects%2BDaughter;" vertex="1" parent="1">
                    <mxGeometry x="1577" y="1880" width="120" height="60" as="geometry"/>
                </mxCell>
                <mxCell id="168" value="PARAM:&lt;br&gt;1. FUNC LOG&lt;br&gt;2. HEADER&amp;nbsp; &amp;nbsp;" style="shape=callout;whiteSpace=wrap;html=1;perimeter=calloutPerimeter;sketch=1;hachureGap=4;jiggle=2;curveFitting=1;fontFamily=Verdana;fontSize=14;position2=0.88;" vertex="1" parent="1">
                    <mxGeometry x="1210" y="1470" width="135" height="90" as="geometry"/>
                </mxCell>
                <mxCell id="171" value="RETURN:&lt;br&gt;STATUS CODE" style="shape=callout;whiteSpace=wrap;html=1;perimeter=calloutPerimeter;sketch=1;hachureGap=4;jiggle=2;curveFitting=1;fontFamily=Verdana;fontSize=14;position2=0;size=40;position=0.21;" vertex="1" parent="1">
                    <mxGeometry x="2325" y="1260" width="135" height="110" as="geometry"/>
                </mxCell>
                <mxCell id="176" style="edgeStyle=none;sketch=1;hachureGap=4;jiggle=2;curveFitting=1;html=1;exitX=0;exitY=0.5;exitDx=0;exitDy=0;fontFamily=Verdana;fontSize=14;entryX=1;entryY=0.75;entryDx=0;entryDy=0;" edge="1" parent="1" source="172" target="11">
                    <mxGeometry relative="1" as="geometry">
                        <mxPoint x="1920" y="650" as="targetPoint"/>
                        <Array as="points">
                            <mxPoint x="1920" y="650"/>
                            <mxPoint x="1920" y="489"/>
                        </Array>
                    </mxGeometry>
                </mxCell>
                <mxCell id="172" value="RETURN" style="ellipse;whiteSpace=wrap;html=1;fontSize=14;fontFamily=Verdana;sketch=1;hachureGap=4;jiggle=2;curveFitting=1;fontSource=https%3A%2F%2Ffonts.googleapis.com%2Fcss%3Ffamily%3DArchitects%2BDaughter;fillColor=#0050ef;fontColor=#ffffff;strokeColor=#001DBC;" vertex="1" parent="1">
                    <mxGeometry x="2010" y="610" width="80" height="80" as="geometry"/>
                </mxCell>
                <mxCell id="182" value="" style="edgeStyle=none;sketch=1;hachureGap=4;jiggle=2;curveFitting=1;html=1;fontFamily=Verdana;fontSize=14;" edge="1" parent="1" source="177" target="181">
                    <mxGeometry relative="1" as="geometry"/>
                </mxCell>
                <mxCell id="177" value="LOG S3" style="rounded=0;whiteSpace=wrap;html=1;sketch=1;hachureGap=4;jiggle=2;curveFitting=1;fontFamily=Verdana;fontSize=14;" vertex="1" parent="1">
                    <mxGeometry x="2520" y="1560" width="120" height="60" as="geometry"/>
                </mxCell>
                <mxCell id="179" value="PARAM:&lt;br&gt;1. FUNC&amp;nbsp; &amp;nbsp; &amp;nbsp; &amp;nbsp; &amp;nbsp; &amp;nbsp;&amp;nbsp;&lt;br&gt;2. INDEX&amp;nbsp; &amp;nbsp; &amp;nbsp; &amp;nbsp; &amp;nbsp; &amp;nbsp;&lt;br&gt;3. RESPONSE&amp;nbsp; &amp;nbsp;&amp;nbsp;&lt;br&gt;4. HEADER&amp;nbsp; &amp;nbsp; &amp;nbsp; &amp;nbsp;&amp;nbsp;&lt;br&gt;5. TOTAL ERROR&lt;br&gt;6. ERROR&amp;nbsp; &amp;nbsp; &amp;nbsp; &amp;nbsp; &amp;nbsp;&amp;nbsp;&lt;br&gt;7. ALL REVIEW&amp;nbsp;&amp;nbsp;" style="shape=callout;whiteSpace=wrap;html=1;perimeter=calloutPerimeter;sketch=1;hachureGap=4;jiggle=2;curveFitting=1;fontFamily=Verdana;fontSize=14;" vertex="1" parent="1">
                    <mxGeometry x="2510" y="1380" width="200" height="180" as="geometry"/>
                </mxCell>
                <mxCell id="184" value="LEN ALL SAME INDEX" style="edgeStyle=none;sketch=1;hachureGap=4;jiggle=2;curveFitting=1;html=1;fontFamily=Verdana;fontSize=14;" edge="1" parent="1" source="181" target="183">
                    <mxGeometry relative="1" as="geometry"/>
                </mxCell>
                <mxCell id="187" value="NOT SAME" style="edgeStyle=none;sketch=1;hachureGap=4;jiggle=2;curveFitting=1;html=1;fontFamily=Verdana;fontSize=14;" edge="1" parent="1" source="181" target="186">
                    <mxGeometry relative="1" as="geometry"/>
                </mxCell>
                <mxCell id="181" value="CHECK INDEX" style="rhombus;whiteSpace=wrap;html=1;fontSize=14;fontFamily=Verdana;rounded=0;sketch=1;hachureGap=4;jiggle=2;curveFitting=1;fontSource=https%3A%2F%2Ffonts.googleapis.com%2Fcss%3Ffamily%3DArchitects%2BDaughter;" vertex="1" parent="1">
                    <mxGeometry x="2530" y="1680" width="100" height="80" as="geometry"/>
                </mxCell>
                <mxCell id="183" value="STATUS == DONE" style="whiteSpace=wrap;html=1;fontSize=14;fontFamily=Verdana;rounded=0;sketch=1;hachureGap=4;jiggle=2;curveFitting=1;fontSource=https%3A%2F%2Ffonts.googleapis.com%2Fcss%3Ffamily%3DArchitects%2BDaughter;" vertex="1" parent="1">
                    <mxGeometry x="2820" y="1690" width="170" height="60" as="geometry"/>
                </mxCell>
                <mxCell id="189" value="" style="edgeStyle=none;sketch=1;hachureGap=4;jiggle=2;curveFitting=1;html=1;fontFamily=Verdana;fontSize=14;" edge="1" parent="1" source="186" target="188">
                    <mxGeometry relative="1" as="geometry"/>
                </mxCell>
                <mxCell id="186" value="ON PROGRES" style="whiteSpace=wrap;html=1;fontSize=14;fontFamily=Verdana;rounded=0;sketch=1;hachureGap=4;jiggle=2;curveFitting=1;fontSource=https%3A%2F%2Ffonts.googleapis.com%2Fcss%3Ffamily%3DArchitects%2BDaughter;" vertex="1" parent="1">
                    <mxGeometry x="2520" y="1820" width="120" height="60" as="geometry"/>
                </mxCell>
                <mxCell id="191" value="HAVE ERROR" style="edgeStyle=none;sketch=1;hachureGap=4;jiggle=2;curveFitting=1;html=1;fontFamily=Verdana;fontSize=14;" edge="1" parent="1" source="188" target="190">
                    <mxGeometry relative="1" as="geometry"/>
                </mxCell>
                <mxCell id="197" value="NONE RROR" style="edgeStyle=none;sketch=1;hachureGap=4;jiggle=2;curveFitting=1;html=1;exitX=0.5;exitY=1;exitDx=0;exitDy=0;entryX=0.5;entryY=0;entryDx=0;entryDy=0;fontFamily=Verdana;fontSize=14;" edge="1" parent="1" source="188" target="196">
                    <mxGeometry relative="1" as="geometry"/>
                </mxCell>
                <mxCell id="188" value="CHECK ERROR" style="rhombus;whiteSpace=wrap;html=1;fontSize=14;fontFamily=Verdana;rounded=0;sketch=1;hachureGap=4;jiggle=2;curveFitting=1;fontSource=https%3A%2F%2Ffonts.googleapis.com%2Fcss%3Ffamily%3DArchitects%2BDaughter;" vertex="1" parent="1">
                    <mxGeometry x="2540" y="1920" width="80" height="80" as="geometry"/>
                </mxCell>
                <mxCell id="193" value="" style="edgeStyle=none;sketch=1;hachureGap=4;jiggle=2;curveFitting=1;html=1;fontFamily=Verdana;fontSize=14;" edge="1" parent="1" source="190" target="192">
                    <mxGeometry relative="1" as="geometry"/>
                </mxCell>
                <mxCell id="262" style="edgeStyle=none;sketch=1;hachureGap=4;jiggle=2;curveFitting=1;html=1;exitX=1;exitY=0.5;exitDx=0;exitDy=0;fontFamily=Verdana;fontSize=14;" edge="1" parent="1" source="190">
                    <mxGeometry relative="1" as="geometry">
                        <mxPoint x="2790" y="2440" as="targetPoint"/>
                        <Array as="points">
                            <mxPoint x="3050" y="1960"/>
                            <mxPoint x="3050" y="2440"/>
                        </Array>
                    </mxGeometry>
                </mxCell>
                <mxCell id="190" value="LOGGING" style="whiteSpace=wrap;html=1;fontSize=14;fontFamily=Verdana;rounded=0;sketch=1;hachureGap=4;jiggle=2;curveFitting=1;fontSource=https%3A%2F%2Ffonts.googleapis.com%2Fcss%3Ffamily%3DArchitects%2BDaughter;" vertex="1" parent="1">
                    <mxGeometry x="2770" y="1930" width="120" height="60" as="geometry"/>
                </mxCell>
                <mxCell id="265" style="edgeStyle=none;sketch=1;hachureGap=4;jiggle=2;curveFitting=1;html=1;exitX=0.5;exitY=1;exitDx=0;exitDy=0;entryX=1;entryY=0.5;entryDx=0;entryDy=0;fontFamily=Verdana;fontSize=14;" edge="1" parent="1" source="192" target="196">
                    <mxGeometry relative="1" as="geometry">
                        <Array as="points">
                            <mxPoint x="2830" y="2120"/>
                        </Array>
                    </mxGeometry>
                </mxCell>
                <mxCell id="192" value="ADD TOTAL ERROR" style="whiteSpace=wrap;html=1;fontSize=14;fontFamily=Verdana;rounded=0;sketch=1;hachureGap=4;jiggle=2;curveFitting=1;fontSource=https%3A%2F%2Ffonts.googleapis.com%2Fcss%3Ffamily%3DArchitects%2BDaughter;" vertex="1" parent="1">
                    <mxGeometry x="2770" y="2040" width="120" height="60" as="geometry"/>
                </mxCell>
                <mxCell id="204" value="200" style="edgeStyle=none;sketch=1;hachureGap=4;jiggle=2;curveFitting=1;html=1;fontFamily=Verdana;fontSize=14;" edge="1" parent="1" source="196" target="203">
                    <mxGeometry relative="1" as="geometry"/>
                </mxCell>
                <mxCell id="206" value="" style="edgeStyle=none;sketch=1;hachureGap=4;jiggle=2;curveFitting=1;html=1;fontFamily=Verdana;fontSize=14;" edge="1" parent="1" source="196" target="205">
                    <mxGeometry relative="1" as="geometry"/>
                </mxCell>
                <mxCell id="196" value="CHECK RESPONSE STATUS" style="rhombus;whiteSpace=wrap;html=1;fontSize=14;fontFamily=Verdana;rounded=0;sketch=1;hachureGap=4;jiggle=2;curveFitting=1;fontSource=https%3A%2F%2Ffonts.googleapis.com%2Fcss%3Ffamily%3DArchitects%2BDaughter;" vertex="1" parent="1">
                    <mxGeometry x="2505" y="2080" width="150" height="80" as="geometry"/>
                </mxCell>
                <mxCell id="209" style="edgeStyle=none;sketch=1;hachureGap=4;jiggle=2;curveFitting=1;html=1;exitX=0.5;exitY=1;exitDx=0;exitDy=0;entryX=1;entryY=0.5;entryDx=0;entryDy=0;fontFamily=Verdana;fontSize=14;" edge="1" parent="1" source="203" target="207">
                    <mxGeometry relative="1" as="geometry">
                        <Array as="points">
                            <mxPoint x="2580" y="2370"/>
                        </Array>
                    </mxGeometry>
                </mxCell>
                <mxCell id="261" style="edgeStyle=none;sketch=1;hachureGap=4;jiggle=2;curveFitting=1;html=1;exitX=1;exitY=0.5;exitDx=0;exitDy=0;entryX=1;entryY=0.5;entryDx=0;entryDy=0;fontFamily=Verdana;fontSize=14;" edge="1" parent="1" source="203" target="227">
                    <mxGeometry relative="1" as="geometry">
                        <Array as="points">
                            <mxPoint x="2790" y="2260"/>
                            <mxPoint x="2790" y="2610"/>
                            <mxPoint x="1110" y="2610"/>
                            <mxPoint x="1110" y="1730"/>
                        </Array>
                    </mxGeometry>
                </mxCell>
                <mxCell id="203" value="LOGGING" style="whiteSpace=wrap;html=1;fontSize=14;fontFamily=Verdana;rounded=0;sketch=1;hachureGap=4;jiggle=2;curveFitting=1;fontSource=https%3A%2F%2Ffonts.googleapis.com%2Fcss%3Ffamily%3DArchitects%2BDaughter;" vertex="1" parent="1">
                    <mxGeometry x="2520" y="2230" width="120" height="60" as="geometry"/>
                </mxCell>
                <mxCell id="208" value="" style="edgeStyle=none;sketch=1;hachureGap=4;jiggle=2;curveFitting=1;html=1;fontFamily=Verdana;fontSize=14;" edge="1" parent="1" source="205" target="207">
                    <mxGeometry relative="1" as="geometry"/>
                </mxCell>
                <mxCell id="205" value="ADD TOTAL ERROR" style="whiteSpace=wrap;html=1;fontSize=14;fontFamily=Verdana;rounded=0;sketch=1;hachureGap=4;jiggle=2;curveFitting=1;fontSource=https%3A%2F%2Ffonts.googleapis.com%2Fcss%3Ffamily%3DArchitects%2BDaughter;" vertex="1" parent="1">
                    <mxGeometry x="2290" y="2090" width="120" height="60" as="geometry"/>
                </mxCell>
                <mxCell id="212" style="edgeStyle=none;sketch=1;hachureGap=4;jiggle=2;curveFitting=1;html=1;exitX=0;exitY=0.5;exitDx=0;exitDy=0;entryX=1;entryY=0.75;entryDx=0;entryDy=0;fontFamily=Verdana;fontSize=14;" edge="1" parent="1" source="207" target="164">
                    <mxGeometry relative="1" as="geometry">
                        <Array as="points">
                            <mxPoint x="2180" y="2370"/>
                            <mxPoint x="2180" y="1925"/>
                        </Array>
                    </mxGeometry>
                </mxCell>
                <mxCell id="207" value="RETURN" style="ellipse;whiteSpace=wrap;html=1;fontSize=14;fontFamily=Verdana;rounded=0;sketch=1;hachureGap=4;jiggle=2;curveFitting=1;fontSource=https%3A%2F%2Ffonts.googleapis.com%2Fcss%3Ffamily%3DArchitects%2BDaughter;fillColor=#0050ef;fontColor=#ffffff;strokeColor=#001DBC;" vertex="1" parent="1">
                    <mxGeometry x="2310" y="2330" width="80" height="80" as="geometry"/>
                </mxCell>
                <mxCell id="210" value="RETURN:&lt;br&gt;1. TOTAL ERROR" style="shape=callout;whiteSpace=wrap;html=1;perimeter=calloutPerimeter;sketch=1;hachureGap=4;jiggle=2;curveFitting=1;fontFamily=Verdana;fontSize=14;position2=0.92;" vertex="1" parent="1">
                    <mxGeometry x="2200" y="2261" width="120" height="80" as="geometry"/>
                </mxCell>
                <mxCell id="216" value="" style="edgeStyle=none;sketch=1;hachureGap=4;jiggle=2;curveFitting=1;html=1;fontFamily=Verdana;fontSize=14;" edge="1" parent="1" source="213" target="215">
                    <mxGeometry relative="1" as="geometry"/>
                </mxCell>
                <mxCell id="213" value="ADD TOTAL ERROR" style="whiteSpace=wrap;html=1;fontSize=14;fontFamily=Verdana;rounded=0;sketch=1;hachureGap=4;jiggle=2;curveFitting=1;fontSource=https%3A%2F%2Ffonts.googleapis.com%2Fcss%3Ffamily%3DArchitects%2BDaughter;" vertex="1" parent="1">
                    <mxGeometry x="1577" y="2000" width="120" height="60" as="geometry"/>
                </mxCell>
                <mxCell id="223" value="" style="edgeStyle=none;sketch=1;hachureGap=4;jiggle=2;curveFitting=1;html=1;fontFamily=Verdana;fontSize=14;" edge="1" parent="1" source="215" target="221">
                    <mxGeometry relative="1" as="geometry"/>
                </mxCell>
                <mxCell id="215" value="CLEAR ERROR IN REVIEWS" style="whiteSpace=wrap;html=1;fontSize=14;fontFamily=Verdana;rounded=0;sketch=1;hachureGap=4;jiggle=2;curveFitting=1;fontSource=https%3A%2F%2Ffonts.googleapis.com%2Fcss%3Ffamily%3DArchitects%2BDaughter;" vertex="1" parent="1">
                    <mxGeometry x="1577" y="2120" width="120" height="60" as="geometry"/>
                </mxCell>
                <mxCell id="224" style="edgeStyle=none;sketch=1;hachureGap=4;jiggle=2;curveFitting=1;html=1;exitX=0.5;exitY=0;exitDx=0;exitDy=0;entryX=1;entryY=0.5;entryDx=0;entryDy=0;fontFamily=Verdana;fontSize=14;" edge="1" parent="1" source="221" target="149">
                    <mxGeometry relative="1" as="geometry">
                        <Array as="points">
                            <mxPoint x="1814" y="1690"/>
                        </Array>
                    </mxGeometry>
                </mxCell>
                <mxCell id="225" value="FINISHED" style="edgeStyle=none;sketch=1;hachureGap=4;jiggle=2;curveFitting=1;html=1;exitX=0.5;exitY=1;exitDx=0;exitDy=0;entryX=0.5;entryY=1;entryDx=0;entryDy=0;fontFamily=Verdana;fontSize=14;" edge="1" parent="1" source="221" target="147">
                    <mxGeometry x="-0.4662" relative="1" as="geometry">
                        <Array as="points">
                            <mxPoint x="1813" y="2240"/>
                            <mxPoint x="1405" y="2240"/>
                        </Array>
                        <mxPoint x="-1" as="offset"/>
                    </mxGeometry>
                </mxCell>
                <mxCell id="221" value="CHECK REVIEW" style="rhombus;whiteSpace=wrap;html=1;fontSize=14;fontFamily=Verdana;rounded=0;sketch=1;hachureGap=4;jiggle=2;curveFitting=1;fontSource=https%3A%2F%2Ffonts.googleapis.com%2Fcss%3Ffamily%3DArchitects%2BDaughter;" vertex="1" parent="1">
                    <mxGeometry x="1767" y="2110" width="93" height="80" as="geometry"/>
                </mxCell>
                <mxCell id="226" value="" style="edgeStyle=none;sketch=1;hachureGap=4;jiggle=2;curveFitting=1;html=1;fontFamily=Verdana;fontSize=13;" edge="1" parent="1" source="227" target="230">
                    <mxGeometry relative="1" as="geometry"/>
                </mxCell>
                <mxCell id="227" value="NEW DATA" style="ellipse;whiteSpace=wrap;html=1;aspect=fixed;sketch=1;hachureGap=4;jiggle=2;curveFitting=1;fontFamily=Verdana;fontSize=13;fontStyle=1" vertex="1" parent="1">
                    <mxGeometry x="135" y="1690" width="80" height="80" as="geometry"/>
                </mxCell>
                <mxCell id="228" value="ID NOT FOUND" style="edgeStyle=none;sketch=1;hachureGap=4;jiggle=2;curveFitting=1;html=1;fontFamily=Verdana;fontSize=13;" edge="1" parent="1" source="230" target="233">
                    <mxGeometry relative="1" as="geometry"/>
                </mxCell>
                <mxCell id="229" value="" style="edgeStyle=none;sketch=1;hachureGap=4;jiggle=2;curveFitting=1;html=1;fontFamily=Verdana;fontSize=13;" edge="1" parent="1" source="230" target="251">
                    <mxGeometry relative="1" as="geometry"/>
                </mxCell>
                <mxCell id="230" value="CHECK ID REVIEW" style="rhombus;whiteSpace=wrap;html=1;fontSize=13;fontFamily=Verdana;sketch=1;hachureGap=4;jiggle=2;curveFitting=1;fontStyle=1;fontSource=https%3A%2F%2Ffonts.googleapis.com%2Fcss%3Ffamily%3DArchitects%2BDaughter;" vertex="1" parent="1">
                    <mxGeometry x="110" y="1840" width="130" height="80" as="geometry"/>
                </mxCell>
                <mxCell id="231" value="WHEN LEN LIST IS 100 AND&amp;nbsp;&lt;br&gt;NO MORE TO EDIT" style="edgeStyle=none;sketch=1;hachureGap=4;jiggle=2;curveFitting=1;html=1;fontFamily=Verdana;fontSize=13;" edge="1" parent="1" source="233" target="235">
                    <mxGeometry relative="1" as="geometry"/>
                </mxCell>
                <mxCell id="232" value="IF LEN LIST != 100 AND ID REVIEW &lt;br&gt;NOT FOUND" style="edgeStyle=none;sketch=1;hachureGap=4;jiggle=2;curveFitting=1;html=1;fontFamily=Verdana;fontSize=13;" edge="1" parent="1" source="233" target="237">
                    <mxGeometry relative="1" as="geometry"/>
                </mxCell>
                <mxCell id="233" value="CHECK LEN LIST" style="rhombus;whiteSpace=wrap;html=1;fontSize=13;fontFamily=Verdana;sketch=1;hachureGap=4;jiggle=2;curveFitting=1;fontStyle=1;fontSource=https%3A%2F%2Ffonts.googleapis.com%2Fcss%3Ffamily%3DArchitects%2BDaughter;" vertex="1" parent="1">
                    <mxGeometry x="389" y="1840" width="150" height="100" as="geometry"/>
                </mxCell>
                <mxCell id="234" value="" style="edgeStyle=none;sketch=1;hachureGap=4;jiggle=2;curveFitting=1;html=1;fontFamily=Verdana;fontSize=13;" edge="1" parent="1" source="235" target="249">
                    <mxGeometry relative="1" as="geometry"/>
                </mxCell>
                <mxCell id="235" value="COPY LIST" style="whiteSpace=wrap;html=1;fontSize=13;fontFamily=Verdana;sketch=1;hachureGap=4;jiggle=2;curveFitting=1;fontStyle=1;fontSource=https%3A%2F%2Ffonts.googleapis.com%2Fcss%3Ffamily%3DArchitects%2BDaughter;" vertex="1" parent="1">
                    <mxGeometry x="779" y="1860" width="120" height="60" as="geometry"/>
                </mxCell>
                <mxCell id="236" value="" style="edgeStyle=none;sketch=1;hachureGap=4;jiggle=2;curveFitting=1;html=1;fontFamily=Verdana;fontSize=13;" edge="1" parent="1" source="237" target="239">
                    <mxGeometry relative="1" as="geometry"/>
                </mxCell>
                <mxCell id="237" value="EXTEND DATA TO CHUCKS" style="whiteSpace=wrap;html=1;fontSize=13;fontFamily=Verdana;sketch=1;hachureGap=4;jiggle=2;curveFitting=1;fontStyle=1;fontSource=https%3A%2F%2Ffonts.googleapis.com%2Fcss%3Ffamily%3DArchitects%2BDaughter;" vertex="1" parent="1">
                    <mxGeometry x="404" y="2050" width="120" height="60" as="geometry"/>
                </mxCell>
                <mxCell id="238" value="" style="edgeStyle=none;sketch=1;hachureGap=4;jiggle=2;curveFitting=1;html=1;fontFamily=Verdana;fontSize=13;" edge="1" parent="1" source="239" target="241">
                    <mxGeometry relative="1" as="geometry"/>
                </mxCell>
                <mxCell id="239" value="APPEND&lt;br&gt;MONITORING TO LIST" style="whiteSpace=wrap;html=1;fontSize=13;fontFamily=Verdana;sketch=1;hachureGap=4;jiggle=2;curveFitting=1;fontStyle=1;fontSource=https%3A%2F%2Ffonts.googleapis.com%2Fcss%3Ffamily%3DArchitects%2BDaughter;fillColor=#a20025;fontColor=#ffffff;strokeColor=#6F0000;" vertex="1" parent="1">
                    <mxGeometry x="404" y="2160" width="120" height="60" as="geometry"/>
                </mxCell>
                <mxCell id="240" value="" style="edgeStyle=none;sketch=1;hachureGap=4;jiggle=2;curveFitting=1;html=1;fontFamily=Verdana;fontSize=13;" edge="1" parent="1" source="241" target="243">
                    <mxGeometry relative="1" as="geometry"/>
                </mxCell>
                <mxCell id="241" value="&lt;font style=&quot;font-size: 13px;&quot;&gt;EXTEND LIST AND CHUCKS&lt;/font&gt;" style="whiteSpace=wrap;html=1;fontSize=13;fontFamily=Verdana;sketch=1;hachureGap=4;jiggle=2;curveFitting=1;fontStyle=1;fontSource=https%3A%2F%2Ffonts.googleapis.com%2Fcss%3Ffamily%3DArchitects%2BDaughter;" vertex="1" parent="1">
                    <mxGeometry x="404" y="2270" width="120" height="60" as="geometry"/>
                </mxCell>
                <mxCell id="242" value="" style="edgeStyle=none;sketch=1;hachureGap=4;jiggle=2;curveFitting=1;html=1;fontFamily=Verdana;fontSize=13;" edge="1" parent="1" source="243" target="246">
                    <mxGeometry relative="1" as="geometry"/>
                </mxCell>
                <mxCell id="243" value="&lt;br&gt;WRITE LIST MONITORING" style="shape=document;whiteSpace=wrap;html=1;boundedLbl=1;fontSize=13;fontFamily=Verdana;sketch=1;hachureGap=4;jiggle=2;curveFitting=1;fontStyle=1;fontSource=https%3A%2F%2Ffonts.googleapis.com%2Fcss%3Ffamily%3DArchitects%2BDaughter;" vertex="1" parent="1">
                    <mxGeometry x="404" y="2410" width="120" height="80" as="geometry"/>
                </mxCell>
                <mxCell id="244" value="IF DONT HAVE ID REVIEW AND&lt;br&gt;STATUS CONDITION IS DONE" style="edgeStyle=none;sketch=1;hachureGap=4;jiggle=2;curveFitting=1;html=1;fontFamily=Verdana;fontSize=13;" edge="1" parent="1" source="246" target="247">
                    <mxGeometry relative="1" as="geometry"/>
                </mxCell>
                <mxCell id="245" value="" style="edgeStyle=none;sketch=1;hachureGap=4;jiggle=2;curveFitting=1;html=1;fontFamily=Verdana;fontSize=13;" edge="1" parent="1" source="246" target="259">
                    <mxGeometry relative="1" as="geometry"/>
                </mxCell>
                <mxCell id="246" value="CHECK ID REVIEW &lt;br&gt;AND STATUS5" style="rhombus;whiteSpace=wrap;html=1;fontSize=13;fontFamily=Verdana;sketch=1;hachureGap=4;jiggle=2;curveFitting=1;fontStyle=1;fontSource=https%3A%2F%2Ffonts.googleapis.com%2Fcss%3Ffamily%3DArchitects%2BDaughter;" vertex="1" parent="1">
                    <mxGeometry x="375" y="2567" width="177" height="130" as="geometry"/>
                </mxCell>
                <mxCell id="247" value="PASS" style="ellipse;whiteSpace=wrap;html=1;fontSize=13;fontFamily=Verdana;sketch=1;hachureGap=4;jiggle=2;curveFitting=1;fontStyle=1;fontSource=https%3A%2F%2Ffonts.googleapis.com%2Fcss%3Ffamily%3DArchitects%2BDaughter;" vertex="1" parent="1">
                    <mxGeometry x="799" y="2592" width="80" height="80" as="geometry"/>
                </mxCell>
                <mxCell id="248" value="" style="edgeStyle=none;sketch=1;hachureGap=4;jiggle=2;curveFitting=1;html=1;fontFamily=Verdana;fontSize=13;" edge="1" parent="1" source="249" target="250">
                    <mxGeometry relative="1" as="geometry">
                        <Array as="points">
                            <mxPoint x="839" y="2060"/>
                        </Array>
                    </mxGeometry>
                </mxCell>
                <mxCell id="249" value="UPDATE CHUCKS WITH LIST" style="whiteSpace=wrap;html=1;fontSize=13;fontFamily=Verdana;sketch=1;hachureGap=4;jiggle=2;curveFitting=1;fontStyle=1;fontSource=https%3A%2F%2Ffonts.googleapis.com%2Fcss%3Ffamily%3DArchitects%2BDaughter;" vertex="1" parent="1">
                    <mxGeometry x="779" y="1980" width="120" height="60" as="geometry"/>
                </mxCell>
                <mxCell id="250" value="CLEAR LIST" style="whiteSpace=wrap;html=1;fontSize=13;fontFamily=Verdana;sketch=1;hachureGap=4;jiggle=2;curveFitting=1;fontStyle=1;fontSource=https%3A%2F%2Ffonts.googleapis.com%2Fcss%3Ffamily%3DArchitects%2BDaughter;" vertex="1" parent="1">
                    <mxGeometry x="779" y="2110" width="120" height="60" as="geometry"/>
                </mxCell>
                <mxCell id="251" value="EDIT DATA IN LIST" style="whiteSpace=wrap;html=1;fontSize=13;fontFamily=Verdana;sketch=1;hachureGap=4;jiggle=2;curveFitting=1;fontStyle=1;fontSource=https%3A%2F%2Ffonts.googleapis.com%2Fcss%3Ffamily%3DArchitects%2BDaughter;" vertex="1" parent="1">
                    <mxGeometry x="115" y="1990" width="120" height="60" as="geometry"/>
                </mxCell>
                <mxCell id="252" value="" style="endArrow=none;html=1;sketch=1;hachureGap=4;jiggle=2;curveFitting=1;fontFamily=Verdana;fontSize=13;exitX=0.5;exitY=1;exitDx=0;exitDy=0;" edge="1" parent="1" source="251">
                    <mxGeometry width="50" height="50" relative="1" as="geometry">
                        <mxPoint x="485" y="2300" as="sourcePoint"/>
                        <mxPoint x="175" y="2300.0000000000005" as="targetPoint"/>
                    </mxGeometry>
                </mxCell>
                <mxCell id="253" value="" style="endArrow=classic;html=1;sketch=1;hachureGap=4;jiggle=2;curveFitting=1;fontFamily=Verdana;fontSize=13;entryX=0;entryY=0.5;entryDx=0;entryDy=0;" edge="1" parent="1" target="241">
                    <mxGeometry width="50" height="50" relative="1" as="geometry">
                        <mxPoint x="175" y="2300.0000000000005" as="sourcePoint"/>
                        <mxPoint x="405" y="2340" as="targetPoint"/>
                    </mxGeometry>
                </mxCell>
                <mxCell id="254" value="" style="endArrow=classic;html=1;sketch=1;hachureGap=4;jiggle=2;curveFitting=1;fontFamily=Verdana;fontSize=13;" edge="1" parent="1" target="237">
                    <mxGeometry width="50" height="50" relative="1" as="geometry">
                        <mxPoint x="175" y="2080.0000000000005" as="sourcePoint"/>
                        <mxPoint x="305" y="2090" as="targetPoint"/>
                    </mxGeometry>
                </mxCell>
                <mxCell id="255" value="" style="endArrow=none;html=1;sketch=1;hachureGap=4;jiggle=2;curveFitting=1;fontFamily=Verdana;fontSize=13;entryX=0.5;entryY=1;entryDx=0;entryDy=0;" edge="1" parent="1" target="250">
                    <mxGeometry width="50" height="50" relative="1" as="geometry">
                        <mxPoint x="839" y="2300.0000000000005" as="sourcePoint"/>
                        <mxPoint x="635" y="2090" as="targetPoint"/>
                    </mxGeometry>
                </mxCell>
                <mxCell id="256" value="" style="endArrow=classic;html=1;sketch=1;hachureGap=4;jiggle=2;curveFitting=1;fontFamily=Verdana;fontSize=13;entryX=1;entryY=0.5;entryDx=0;entryDy=0;" edge="1" parent="1" target="241">
                    <mxGeometry width="50" height="50" relative="1" as="geometry">
                        <mxPoint x="835" y="2300.0000000000005" as="sourcePoint"/>
                        <mxPoint x="635" y="2090" as="targetPoint"/>
                    </mxGeometry>
                </mxCell>
                <mxCell id="257" value="" style="endArrow=classic;html=1;sketch=1;hachureGap=4;jiggle=2;curveFitting=1;fontFamily=Verdana;fontSize=13;entryX=1;entryY=0.5;entryDx=0;entryDy=0;" edge="1" parent="1" target="237">
                    <mxGeometry width="50" height="50" relative="1" as="geometry">
                        <mxPoint x="835" y="2220.0000000000005" as="sourcePoint"/>
                        <mxPoint x="455" y="2060" as="targetPoint"/>
                        <Array as="points">
                            <mxPoint x="695" y="2220"/>
                            <mxPoint x="695" y="2080"/>
                        </Array>
                    </mxGeometry>
                </mxCell>
                <mxCell id="258" value="" style="edgeStyle=none;sketch=1;hachureGap=4;jiggle=2;curveFitting=1;html=1;fontFamily=Verdana;fontSize=13;" edge="1" parent="1" source="259" target="260">
                    <mxGeometry relative="1" as="geometry"/>
                </mxCell>
                <mxCell id="259" value="APPEND LOG TO LIS LOGS" style="whiteSpace=wrap;html=1;fontSize=13;fontFamily=Verdana;sketch=1;hachureGap=4;jiggle=2;curveFitting=1;fontStyle=1;fontSource=https%3A%2F%2Ffonts.googleapis.com%2Fcss%3Ffamily%3DArchitects%2BDaughter;" vertex="1" parent="1">
                    <mxGeometry x="403.5" y="2750" width="120" height="60" as="geometry"/>
                </mxCell>
                <mxCell id="260" value="&lt;br&gt;WRITE LIST LOGS" style="shape=document;whiteSpace=wrap;html=1;boundedLbl=1;fontSize=13;fontFamily=Verdana;sketch=1;hachureGap=4;jiggle=2;curveFitting=1;fontStyle=1;fontSource=https%3A%2F%2Ffonts.googleapis.com%2Fcss%3Ffamily%3DArchitects%2BDaughter;" vertex="1" parent="1">
                    <mxGeometry x="403.5" y="2880" width="120" height="80" as="geometry"/>
                </mxCell>
            </root>
        </mxGraphModel>
    </diagram>
</mxfile>